<?xml version="1.0" encoding="utf-8"?>
<svg xmlns="http://www.w3.org/2000/svg" xmlns:xlink="http://www.w3.org/1999/xlink" width="600" height="400" viewBox="0 0 2400 1600">
<defs>
  <clipPath id="clip700">
    <rect x="0" y="0" width="2400" height="1600"/>
  </clipPath>
</defs>
<path clip-path="url(#clip700)" d="M0 1600 L2400 1600 L2400 8.88178e-14 L0 8.88178e-14  Z" fill="#ffffff" fill-rule="evenodd" fill-opacity="1"/>
<defs>
  <clipPath id="clip701">
    <rect x="480" y="0" width="1681" height="1600"/>
  </clipPath>
</defs>
<path clip-path="url(#clip700)" d="M219.38 1423.18 L2352.76 1423.18 L2352.76 123.472 L219.38 123.472  Z" fill="#ffffff" fill-rule="evenodd" fill-opacity="1"/>
<defs>
  <clipPath id="clip702">
    <rect x="219" y="123" width="2134" height="1301"/>
  </clipPath>
</defs>
<polyline clip-path="url(#clip702)" style="stroke:#000000; stroke-linecap:round; stroke-linejoin:round; stroke-width:2; stroke-opacity:0.1; fill:none" points="279.759,1423.18 279.759,123.472 "/>
<polyline clip-path="url(#clip702)" style="stroke:#000000; stroke-linecap:round; stroke-linejoin:round; stroke-width:2; stroke-opacity:0.1; fill:none" points="758.954,1423.18 758.954,123.472 "/>
<polyline clip-path="url(#clip702)" style="stroke:#000000; stroke-linecap:round; stroke-linejoin:round; stroke-width:2; stroke-opacity:0.1; fill:none" points="1238.15,1423.18 1238.15,123.472 "/>
<polyline clip-path="url(#clip702)" style="stroke:#000000; stroke-linecap:round; stroke-linejoin:round; stroke-width:2; stroke-opacity:0.1; fill:none" points="1717.34,1423.18 1717.34,123.472 "/>
<polyline clip-path="url(#clip702)" style="stroke:#000000; stroke-linecap:round; stroke-linejoin:round; stroke-width:2; stroke-opacity:0.1; fill:none" points="2196.54,1423.18 2196.54,123.472 "/>
<polyline clip-path="url(#clip702)" style="stroke:#000000; stroke-linecap:round; stroke-linejoin:round; stroke-width:2; stroke-opacity:0.1; fill:none" points="219.38,1386.4 2352.76,1386.4 "/>
<polyline clip-path="url(#clip702)" style="stroke:#000000; stroke-linecap:round; stroke-linejoin:round; stroke-width:2; stroke-opacity:0.1; fill:none" points="219.38,1097.24 2352.76,1097.24 "/>
<polyline clip-path="url(#clip702)" style="stroke:#000000; stroke-linecap:round; stroke-linejoin:round; stroke-width:2; stroke-opacity:0.1; fill:none" points="219.38,808.094 2352.76,808.094 "/>
<polyline clip-path="url(#clip702)" style="stroke:#000000; stroke-linecap:round; stroke-linejoin:round; stroke-width:2; stroke-opacity:0.1; fill:none" points="219.38,518.943 2352.76,518.943 "/>
<polyline clip-path="url(#clip702)" style="stroke:#000000; stroke-linecap:round; stroke-linejoin:round; stroke-width:2; stroke-opacity:0.1; fill:none" points="219.38,229.792 2352.76,229.792 "/>
<polyline clip-path="url(#clip700)" style="stroke:#000000; stroke-linecap:round; stroke-linejoin:round; stroke-width:4; stroke-opacity:1; fill:none" points="219.38,1423.18 2352.76,1423.18 "/>
<polyline clip-path="url(#clip700)" style="stroke:#000000; stroke-linecap:round; stroke-linejoin:round; stroke-width:4; stroke-opacity:1; fill:none" points="279.759,1423.18 279.759,1404.28 "/>
<polyline clip-path="url(#clip700)" style="stroke:#000000; stroke-linecap:round; stroke-linejoin:round; stroke-width:4; stroke-opacity:1; fill:none" points="758.954,1423.18 758.954,1404.28 "/>
<polyline clip-path="url(#clip700)" style="stroke:#000000; stroke-linecap:round; stroke-linejoin:round; stroke-width:4; stroke-opacity:1; fill:none" points="1238.15,1423.18 1238.15,1404.28 "/>
<polyline clip-path="url(#clip700)" style="stroke:#000000; stroke-linecap:round; stroke-linejoin:round; stroke-width:4; stroke-opacity:1; fill:none" points="1717.34,1423.18 1717.34,1404.28 "/>
<polyline clip-path="url(#clip700)" style="stroke:#000000; stroke-linecap:round; stroke-linejoin:round; stroke-width:4; stroke-opacity:1; fill:none" points="2196.54,1423.18 2196.54,1404.28 "/>
<path clip-path="url(#clip700)" d="M279.759 1454.1 Q276.148 1454.1 274.319 1457.66 Q272.513 1461.2 272.513 1468.33 Q272.513 1475.44 274.319 1479.01 Q276.148 1482.55 279.759 1482.55 Q283.393 1482.55 285.199 1479.01 Q287.027 1475.44 287.027 1468.33 Q287.027 1461.2 285.199 1457.66 Q283.393 1454.1 279.759 1454.1 M279.759 1450.39 Q285.569 1450.39 288.624 1455 Q291.703 1459.58 291.703 1468.33 Q291.703 1477.06 288.624 1481.67 Q285.569 1486.25 279.759 1486.25 Q273.949 1486.25 270.87 1481.67 Q267.814 1477.06 267.814 1468.33 Q267.814 1459.58 270.87 1455 Q273.949 1450.39 279.759 1450.39 Z" fill="#000000" fill-rule="nonzero" fill-opacity="1" /><path clip-path="url(#clip700)" d="M749.231 1451.02 L767.588 1451.02 L767.588 1454.96 L753.514 1454.96 L753.514 1463.43 Q754.532 1463.08 755.551 1462.92 Q756.569 1462.73 757.588 1462.73 Q763.375 1462.73 766.755 1465.9 Q770.134 1469.08 770.134 1474.49 Q770.134 1480.07 766.662 1483.17 Q763.19 1486.25 756.87 1486.25 Q754.694 1486.25 752.426 1485.88 Q750.181 1485.51 747.773 1484.77 L747.773 1480.07 Q749.856 1481.2 752.079 1481.76 Q754.301 1482.32 756.778 1482.32 Q760.782 1482.32 763.12 1480.21 Q765.458 1478.1 765.458 1474.49 Q765.458 1470.88 763.12 1468.77 Q760.782 1466.67 756.778 1466.67 Q754.903 1466.67 753.028 1467.08 Q751.176 1467.5 749.231 1468.38 L749.231 1451.02 Z" fill="#000000" fill-rule="nonzero" fill-opacity="1" /><path clip-path="url(#clip700)" d="M1212.84 1481.64 L1220.48 1481.64 L1220.48 1455.28 L1212.16 1456.95 L1212.16 1452.69 L1220.43 1451.02 L1225.1 1451.02 L1225.1 1481.64 L1232.74 1481.64 L1232.74 1485.58 L1212.84 1485.58 L1212.84 1481.64 Z" fill="#000000" fill-rule="nonzero" fill-opacity="1" /><path clip-path="url(#clip700)" d="M1252.19 1454.1 Q1248.58 1454.1 1246.75 1457.66 Q1244.94 1461.2 1244.94 1468.33 Q1244.94 1475.44 1246.75 1479.01 Q1248.58 1482.55 1252.19 1482.55 Q1255.82 1482.55 1257.63 1479.01 Q1259.46 1475.44 1259.46 1468.33 Q1259.46 1461.2 1257.63 1457.66 Q1255.82 1454.1 1252.19 1454.1 M1252.19 1450.39 Q1258 1450.39 1261.05 1455 Q1264.13 1459.58 1264.13 1468.33 Q1264.13 1477.06 1261.05 1481.67 Q1258 1486.25 1252.19 1486.25 Q1246.38 1486.25 1243.3 1481.67 Q1240.24 1477.06 1240.24 1468.33 Q1240.24 1459.58 1243.3 1455 Q1246.38 1450.39 1252.19 1450.39 Z" fill="#000000" fill-rule="nonzero" fill-opacity="1" /><path clip-path="url(#clip700)" d="M1692.53 1481.64 L1700.17 1481.64 L1700.17 1455.28 L1691.86 1456.95 L1691.86 1452.69 L1700.12 1451.02 L1704.8 1451.02 L1704.8 1481.64 L1712.44 1481.64 L1712.44 1485.58 L1692.53 1485.58 L1692.53 1481.64 Z" fill="#000000" fill-rule="nonzero" fill-opacity="1" /><path clip-path="url(#clip700)" d="M1721.93 1451.02 L1740.28 1451.02 L1740.28 1454.96 L1726.21 1454.96 L1726.21 1463.43 Q1727.23 1463.08 1728.25 1462.92 Q1729.26 1462.73 1730.28 1462.73 Q1736.07 1462.73 1739.45 1465.9 Q1742.83 1469.08 1742.83 1474.49 Q1742.83 1480.07 1739.36 1483.17 Q1735.89 1486.25 1729.57 1486.25 Q1727.39 1486.25 1725.12 1485.88 Q1722.88 1485.51 1720.47 1484.77 L1720.47 1480.07 Q1722.55 1481.2 1724.77 1481.76 Q1727 1482.32 1729.47 1482.32 Q1733.48 1482.32 1735.82 1480.21 Q1738.15 1478.1 1738.15 1474.49 Q1738.15 1470.88 1735.82 1468.77 Q1733.48 1466.67 1729.47 1466.67 Q1727.6 1466.67 1725.72 1467.08 Q1723.87 1467.5 1721.93 1468.38 L1721.93 1451.02 Z" fill="#000000" fill-rule="nonzero" fill-opacity="1" /><path clip-path="url(#clip700)" d="M2175.31 1481.64 L2191.63 1481.64 L2191.63 1485.58 L2169.69 1485.58 L2169.69 1481.64 Q2172.35 1478.89 2176.93 1474.26 Q2181.54 1469.61 2182.72 1468.27 Q2184.96 1465.74 2185.84 1464.01 Q2186.75 1462.25 2186.75 1460.56 Q2186.75 1457.8 2184.8 1456.07 Q2182.88 1454.33 2179.78 1454.33 Q2177.58 1454.33 2175.13 1455.09 Q2172.7 1455.86 2169.92 1457.41 L2169.92 1452.69 Q2172.74 1451.55 2175.2 1450.97 Q2177.65 1450.39 2179.69 1450.39 Q2185.06 1450.39 2188.25 1453.08 Q2191.45 1455.77 2191.45 1460.26 Q2191.45 1462.39 2190.64 1464.31 Q2189.85 1466.2 2187.74 1468.8 Q2187.16 1469.47 2184.06 1472.69 Q2180.96 1475.88 2175.31 1481.64 Z" fill="#000000" fill-rule="nonzero" fill-opacity="1" /><path clip-path="url(#clip700)" d="M2211.45 1454.1 Q2207.83 1454.1 2206.01 1457.66 Q2204.2 1461.2 2204.2 1468.33 Q2204.2 1475.44 2206.01 1479.01 Q2207.83 1482.55 2211.45 1482.55 Q2215.08 1482.55 2216.89 1479.01 Q2218.71 1475.44 2218.71 1468.33 Q2218.71 1461.2 2216.89 1457.66 Q2215.08 1454.1 2211.45 1454.1 M2211.45 1450.39 Q2217.26 1450.39 2220.31 1455 Q2223.39 1459.58 2223.39 1468.33 Q2223.39 1477.06 2220.31 1481.67 Q2217.26 1486.25 2211.45 1486.25 Q2205.64 1486.25 2202.56 1481.67 Q2199.5 1477.06 2199.5 1468.33 Q2199.5 1459.58 2202.56 1455 Q2205.64 1450.39 2211.45 1450.39 Z" fill="#000000" fill-rule="nonzero" fill-opacity="1" /><path clip-path="url(#clip700)" d="M1137.49 1520.52 L1177.69 1520.52 L1177.69 1525.93 L1160.82 1525.93 L1160.82 1568.04 L1154.36 1568.04 L1154.36 1525.93 L1137.49 1525.93 L1137.49 1520.52 Z" fill="#000000" fill-rule="nonzero" fill-opacity="1" /><path clip-path="url(#clip700)" d="M1181.64 1532.4 L1187.5 1532.4 L1187.5 1568.04 L1181.64 1568.04 L1181.64 1532.4 M1181.64 1518.52 L1187.5 1518.52 L1187.5 1525.93 L1181.64 1525.93 L1181.64 1518.52 Z" fill="#000000" fill-rule="nonzero" fill-opacity="1" /><path clip-path="url(#clip700)" d="M1227.5 1539.24 Q1229.7 1535.29 1232.76 1533.41 Q1235.81 1531.54 1239.95 1531.54 Q1245.52 1531.54 1248.54 1535.45 Q1251.57 1539.33 1251.57 1546.53 L1251.57 1568.04 L1245.68 1568.04 L1245.68 1546.72 Q1245.68 1541.59 1243.86 1539.11 Q1242.05 1536.63 1238.33 1536.63 Q1233.77 1536.63 1231.13 1539.65 Q1228.49 1542.68 1228.49 1547.9 L1228.49 1568.04 L1222.6 1568.04 L1222.6 1546.72 Q1222.6 1541.56 1220.79 1539.11 Q1218.97 1536.63 1215.19 1536.63 Q1210.7 1536.63 1208.06 1539.68 Q1205.41 1542.71 1205.41 1547.9 L1205.41 1568.04 L1199.53 1568.04 L1199.53 1532.4 L1205.41 1532.4 L1205.41 1537.93 Q1207.42 1534.66 1210.22 1533.1 Q1213.02 1531.54 1216.87 1531.54 Q1220.76 1531.54 1223.46 1533.51 Q1226.2 1535.48 1227.5 1539.24 Z" fill="#000000" fill-rule="nonzero" fill-opacity="1" /><path clip-path="url(#clip700)" d="M1293.74 1548.76 L1293.74 1551.62 L1266.81 1551.62 Q1267.19 1557.67 1270.44 1560.85 Q1273.72 1564 1279.54 1564 Q1282.92 1564 1286.07 1563.17 Q1289.25 1562.35 1292.37 1560.69 L1292.37 1566.23 Q1289.22 1567.57 1285.91 1568.27 Q1282.6 1568.97 1279.19 1568.97 Q1270.66 1568.97 1265.67 1564 Q1260.7 1559.04 1260.7 1550.57 Q1260.7 1541.82 1265.41 1536.69 Q1270.15 1531.54 1278.17 1531.54 Q1285.37 1531.54 1289.54 1536.18 Q1293.74 1540.8 1293.74 1548.76 M1287.88 1547.04 Q1287.82 1542.23 1285.18 1539.37 Q1282.57 1536.5 1278.24 1536.5 Q1273.34 1536.5 1270.38 1539.27 Q1267.45 1542.04 1267 1547.07 L1287.88 1547.04 Z" fill="#000000" fill-rule="nonzero" fill-opacity="1" /><path clip-path="url(#clip700)" d="M1326.08 1533.45 L1326.08 1538.98 Q1323.59 1537.71 1320.92 1537.07 Q1318.25 1536.44 1315.38 1536.44 Q1311.02 1536.44 1308.83 1537.77 Q1306.66 1539.11 1306.66 1541.79 Q1306.66 1543.82 1308.22 1545 Q1309.78 1546.15 1314.49 1547.2 L1316.5 1547.64 Q1322.73 1548.98 1325.34 1551.43 Q1327.99 1553.85 1327.99 1558.21 Q1327.99 1563.17 1324.04 1566.07 Q1320.12 1568.97 1313.25 1568.97 Q1310.39 1568.97 1307.27 1568.39 Q1304.18 1567.85 1300.74 1566.74 L1300.74 1560.69 Q1303.99 1562.38 1307.14 1563.24 Q1310.29 1564.07 1313.38 1564.07 Q1317.51 1564.07 1319.74 1562.66 Q1321.97 1561.23 1321.97 1558.65 Q1321.97 1556.27 1320.35 1554.99 Q1318.76 1553.72 1313.31 1552.54 L1311.28 1552.07 Q1305.83 1550.92 1303.41 1548.56 Q1301 1546.18 1301 1542.04 Q1301 1537.01 1304.56 1534.27 Q1308.13 1531.54 1314.68 1531.54 Q1317.93 1531.54 1320.79 1532.01 Q1323.66 1532.49 1326.08 1533.45 Z" fill="#000000" fill-rule="nonzero" fill-opacity="1" /><path clip-path="url(#clip700)" d="M1343.1 1522.27 L1343.1 1532.4 L1355.17 1532.4 L1355.17 1536.95 L1343.1 1536.95 L1343.1 1556.3 Q1343.1 1560.66 1344.28 1561.9 Q1345.49 1563.14 1349.15 1563.14 L1355.17 1563.14 L1355.17 1568.04 L1349.15 1568.04 Q1342.37 1568.04 1339.79 1565.53 Q1337.22 1562.98 1337.22 1556.3 L1337.22 1536.95 L1332.92 1536.95 L1332.92 1532.4 L1337.22 1532.4 L1337.22 1522.27 L1343.1 1522.27 Z" fill="#000000" fill-rule="nonzero" fill-opacity="1" /><path clip-path="url(#clip700)" d="M1393.36 1548.76 L1393.36 1551.62 L1366.44 1551.62 Q1366.82 1557.67 1370.06 1560.85 Q1373.34 1564 1379.17 1564 Q1382.54 1564 1385.69 1563.17 Q1388.87 1562.35 1391.99 1560.69 L1391.99 1566.23 Q1388.84 1567.57 1385.53 1568.27 Q1382.22 1568.97 1378.82 1568.97 Q1370.29 1568.97 1365.29 1564 Q1360.32 1559.04 1360.32 1550.57 Q1360.32 1541.82 1365.03 1536.69 Q1369.78 1531.54 1377.8 1531.54 Q1384.99 1531.54 1389.16 1536.18 Q1393.36 1540.8 1393.36 1548.76 M1387.51 1547.04 Q1387.44 1542.23 1384.8 1539.37 Q1382.19 1536.5 1377.86 1536.5 Q1372.96 1536.5 1370 1539.27 Q1367.07 1542.04 1366.63 1547.07 L1387.51 1547.04 Z" fill="#000000" fill-rule="nonzero" fill-opacity="1" /><path clip-path="url(#clip700)" d="M1408.64 1562.7 L1408.64 1581.6 L1402.75 1581.6 L1402.75 1532.4 L1408.64 1532.4 L1408.64 1537.81 Q1410.49 1534.62 1413.29 1533.1 Q1416.12 1531.54 1420.03 1531.54 Q1426.53 1531.54 1430.57 1536.69 Q1434.64 1541.85 1434.64 1550.25 Q1434.64 1558.65 1430.57 1563.81 Q1426.53 1568.97 1420.03 1568.97 Q1416.12 1568.97 1413.29 1567.44 Q1410.49 1565.88 1408.64 1562.7 M1428.56 1550.25 Q1428.56 1543.79 1425.89 1540.13 Q1423.25 1536.44 1418.6 1536.44 Q1413.96 1536.44 1411.28 1540.13 Q1408.64 1543.79 1408.64 1550.25 Q1408.64 1556.71 1411.28 1560.4 Q1413.96 1564.07 1418.6 1564.07 Q1423.25 1564.07 1425.89 1560.4 Q1428.56 1556.71 1428.56 1550.25 Z" fill="#000000" fill-rule="nonzero" fill-opacity="1" /><polyline clip-path="url(#clip700)" style="stroke:#000000; stroke-linecap:round; stroke-linejoin:round; stroke-width:4; stroke-opacity:1; fill:none" points="219.38,1423.18 219.38,123.472 "/>
<polyline clip-path="url(#clip700)" style="stroke:#000000; stroke-linecap:round; stroke-linejoin:round; stroke-width:4; stroke-opacity:1; fill:none" points="219.38,1386.4 238.278,1386.4 "/>
<polyline clip-path="url(#clip700)" style="stroke:#000000; stroke-linecap:round; stroke-linejoin:round; stroke-width:4; stroke-opacity:1; fill:none" points="219.38,1097.24 238.278,1097.24 "/>
<polyline clip-path="url(#clip700)" style="stroke:#000000; stroke-linecap:round; stroke-linejoin:round; stroke-width:4; stroke-opacity:1; fill:none" points="219.38,808.094 238.278,808.094 "/>
<polyline clip-path="url(#clip700)" style="stroke:#000000; stroke-linecap:round; stroke-linejoin:round; stroke-width:4; stroke-opacity:1; fill:none" points="219.38,518.943 238.278,518.943 "/>
<polyline clip-path="url(#clip700)" style="stroke:#000000; stroke-linecap:round; stroke-linejoin:round; stroke-width:4; stroke-opacity:1; fill:none" points="219.38,229.792 238.278,229.792 "/>
<path clip-path="url(#clip700)" d="M126.205 1372.19 Q122.593 1372.19 120.765 1375.76 Q118.959 1379.3 118.959 1386.43 Q118.959 1393.54 120.765 1397.1 Q122.593 1400.64 126.205 1400.64 Q129.839 1400.64 131.644 1397.1 Q133.473 1393.54 133.473 1386.43 Q133.473 1379.3 131.644 1375.76 Q129.839 1372.19 126.205 1372.19 M126.205 1368.49 Q132.015 1368.49 135.07 1373.1 Q138.149 1377.68 138.149 1386.43 Q138.149 1395.16 135.07 1399.76 Q132.015 1404.35 126.205 1404.35 Q120.394 1404.35 117.316 1399.76 Q114.26 1395.16 114.26 1386.43 Q114.26 1377.68 117.316 1373.1 Q120.394 1368.49 126.205 1368.49 Z" fill="#000000" fill-rule="nonzero" fill-opacity="1" /><path clip-path="url(#clip700)" d="M146.366 1397.8 L151.251 1397.8 L151.251 1403.68 L146.366 1403.68 L146.366 1397.8 Z" fill="#000000" fill-rule="nonzero" fill-opacity="1" /><path clip-path="url(#clip700)" d="M171.436 1372.19 Q167.825 1372.19 165.996 1375.76 Q164.19 1379.3 164.19 1386.43 Q164.19 1393.54 165.996 1397.1 Q167.825 1400.64 171.436 1400.64 Q175.07 1400.64 176.876 1397.1 Q178.704 1393.54 178.704 1386.43 Q178.704 1379.3 176.876 1375.76 Q175.07 1372.19 171.436 1372.19 M171.436 1368.49 Q177.246 1368.49 180.301 1373.1 Q183.38 1377.68 183.38 1386.43 Q183.38 1395.16 180.301 1399.76 Q177.246 1404.35 171.436 1404.35 Q165.626 1404.35 162.547 1399.76 Q159.491 1395.16 159.491 1386.43 Q159.491 1377.68 162.547 1373.1 Q165.626 1368.49 171.436 1368.49 Z" fill="#000000" fill-rule="nonzero" fill-opacity="1" /><path clip-path="url(#clip700)" d="M127.2 1083.04 Q123.589 1083.04 121.76 1086.61 Q119.955 1090.15 119.955 1097.28 Q119.955 1104.39 121.76 1107.95 Q123.589 1111.49 127.2 1111.49 Q130.834 1111.49 132.64 1107.95 Q134.468 1104.39 134.468 1097.28 Q134.468 1090.15 132.64 1086.61 Q130.834 1083.04 127.2 1083.04 M127.2 1079.34 Q133.01 1079.34 136.066 1083.95 Q139.144 1088.53 139.144 1097.28 Q139.144 1106.01 136.066 1110.61 Q133.01 1115.2 127.2 1115.2 Q121.39 1115.2 118.311 1110.61 Q115.256 1106.01 115.256 1097.28 Q115.256 1088.53 118.311 1083.95 Q121.39 1079.34 127.2 1079.34 Z" fill="#000000" fill-rule="nonzero" fill-opacity="1" /><path clip-path="url(#clip700)" d="M147.362 1108.65 L152.246 1108.65 L152.246 1114.52 L147.362 1114.52 L147.362 1108.65 Z" fill="#000000" fill-rule="nonzero" fill-opacity="1" /><path clip-path="url(#clip700)" d="M162.477 1079.96 L180.834 1079.96 L180.834 1083.9 L166.76 1083.9 L166.76 1092.37 Q167.778 1092.02 168.797 1091.86 Q169.815 1091.68 170.834 1091.68 Q176.621 1091.68 180.001 1094.85 Q183.38 1098.02 183.38 1103.44 Q183.38 1109.02 179.908 1112.12 Q176.436 1115.2 170.116 1115.2 Q167.94 1115.2 165.672 1114.83 Q163.427 1114.46 161.019 1113.71 L161.019 1109.02 Q163.102 1110.15 165.325 1110.71 Q167.547 1111.26 170.024 1111.26 Q174.028 1111.26 176.366 1109.15 Q178.704 1107.05 178.704 1103.44 Q178.704 1099.83 176.366 1097.72 Q174.028 1095.61 170.024 1095.61 Q168.149 1095.61 166.274 1096.03 Q164.422 1096.45 162.477 1097.33 L162.477 1079.96 Z" fill="#000000" fill-rule="nonzero" fill-opacity="1" /><path clip-path="url(#clip700)" d="M117.015 821.439 L124.654 821.439 L124.654 795.073 L116.343 796.74 L116.343 792.48 L124.607 790.814 L129.283 790.814 L129.283 821.439 L136.922 821.439 L136.922 825.374 L117.015 825.374 L117.015 821.439 Z" fill="#000000" fill-rule="nonzero" fill-opacity="1" /><path clip-path="url(#clip700)" d="M146.366 819.494 L151.251 819.494 L151.251 825.374 L146.366 825.374 L146.366 819.494 Z" fill="#000000" fill-rule="nonzero" fill-opacity="1" /><path clip-path="url(#clip700)" d="M171.436 793.892 Q167.825 793.892 165.996 797.457 Q164.19 800.999 164.19 808.129 Q164.19 815.235 165.996 818.8 Q167.825 822.341 171.436 822.341 Q175.07 822.341 176.876 818.8 Q178.704 815.235 178.704 808.129 Q178.704 800.999 176.876 797.457 Q175.07 793.892 171.436 793.892 M171.436 790.189 Q177.246 790.189 180.301 794.795 Q183.38 799.379 183.38 808.129 Q183.38 816.855 180.301 821.462 Q177.246 826.045 171.436 826.045 Q165.626 826.045 162.547 821.462 Q159.491 816.855 159.491 808.129 Q159.491 799.379 162.547 794.795 Q165.626 790.189 171.436 790.189 Z" fill="#000000" fill-rule="nonzero" fill-opacity="1" /><path clip-path="url(#clip700)" d="M118.01 532.288 L125.649 532.288 L125.649 505.922 L117.339 507.589 L117.339 503.33 L125.603 501.663 L130.279 501.663 L130.279 532.288 L137.917 532.288 L137.917 536.223 L118.01 536.223 L118.01 532.288 Z" fill="#000000" fill-rule="nonzero" fill-opacity="1" /><path clip-path="url(#clip700)" d="M147.362 530.343 L152.246 530.343 L152.246 536.223 L147.362 536.223 L147.362 530.343 Z" fill="#000000" fill-rule="nonzero" fill-opacity="1" /><path clip-path="url(#clip700)" d="M162.477 501.663 L180.834 501.663 L180.834 505.598 L166.76 505.598 L166.76 514.07 Q167.778 513.723 168.797 513.561 Q169.815 513.376 170.834 513.376 Q176.621 513.376 180.001 516.547 Q183.38 519.718 183.38 525.135 Q183.38 530.714 179.908 533.815 Q176.436 536.894 170.116 536.894 Q167.94 536.894 165.672 536.524 Q163.427 536.153 161.019 535.413 L161.019 530.714 Q163.102 531.848 165.325 532.403 Q167.547 532.959 170.024 532.959 Q174.028 532.959 176.366 530.853 Q178.704 528.746 178.704 525.135 Q178.704 521.524 176.366 519.417 Q174.028 517.311 170.024 517.311 Q168.149 517.311 166.274 517.728 Q164.422 518.144 162.477 519.024 L162.477 501.663 Z" fill="#000000" fill-rule="nonzero" fill-opacity="1" /><path clip-path="url(#clip700)" d="M120.232 243.137 L136.552 243.137 L136.552 247.072 L114.607 247.072 L114.607 243.137 Q117.269 240.382 121.853 235.753 Q126.459 231.1 127.64 229.757 Q129.885 227.234 130.765 225.498 Q131.667 223.739 131.667 222.049 Q131.667 219.294 129.723 217.558 Q127.802 215.822 124.7 215.822 Q122.501 215.822 120.047 216.586 Q117.617 217.35 114.839 218.901 L114.839 214.179 Q117.663 213.044 120.117 212.466 Q122.57 211.887 124.607 211.887 Q129.978 211.887 133.172 214.572 Q136.367 217.257 136.367 221.748 Q136.367 223.878 135.556 225.799 Q134.769 227.697 132.663 230.29 Q132.084 230.961 128.982 234.178 Q125.88 237.373 120.232 243.137 Z" fill="#000000" fill-rule="nonzero" fill-opacity="1" /><path clip-path="url(#clip700)" d="M146.366 241.192 L151.251 241.192 L151.251 247.072 L146.366 247.072 L146.366 241.192 Z" fill="#000000" fill-rule="nonzero" fill-opacity="1" /><path clip-path="url(#clip700)" d="M171.436 215.591 Q167.825 215.591 165.996 219.155 Q164.19 222.697 164.19 229.827 Q164.19 236.933 165.996 240.498 Q167.825 244.04 171.436 244.04 Q175.07 244.04 176.876 240.498 Q178.704 236.933 178.704 229.827 Q178.704 222.697 176.876 219.155 Q175.07 215.591 171.436 215.591 M171.436 211.887 Q177.246 211.887 180.301 216.493 Q183.38 221.077 183.38 229.827 Q183.38 238.553 180.301 243.16 Q177.246 247.743 171.436 247.743 Q165.626 247.743 162.547 243.16 Q159.491 238.553 159.491 229.827 Q159.491 221.077 162.547 216.493 Q165.626 211.887 171.436 211.887 Z" fill="#000000" fill-rule="nonzero" fill-opacity="1" /><path clip-path="url(#clip700)" d="M64.0042 842.696 L16.4842 860.839 L16.4842 854.123 L56.4926 839.068 L16.4842 823.981 L16.4842 817.297 L64.0042 835.408 L64.0042 842.696 Z" fill="#000000" fill-rule="nonzero" fill-opacity="1" /><path clip-path="url(#clip700)" d="M46.0847 799.473 Q46.0847 806.571 47.7079 809.308 Q49.3312 812.045 53.2461 812.045 Q56.3653 812.045 58.2114 810.008 Q60.0256 807.94 60.0256 804.407 Q60.0256 799.537 56.5881 796.609 Q53.1188 793.649 47.3897 793.649 L46.0847 793.649 L46.0847 799.473 M43.6657 787.792 L64.0042 787.792 L64.0042 793.649 L58.5933 793.649 Q61.8398 795.654 63.3994 798.646 Q64.9272 801.637 64.9272 805.966 Q64.9272 811.441 61.8716 814.687 Q58.7843 817.902 53.6281 817.902 Q47.6125 817.902 44.5569 813.891 Q41.5014 809.849 41.5014 801.86 L41.5014 793.649 L40.9285 793.649 Q36.8862 793.649 34.6901 796.322 Q32.4621 798.964 32.4621 803.77 Q32.4621 806.826 33.1941 809.722 Q33.9262 812.618 35.3903 815.292 L29.9795 815.292 Q28.7381 812.077 28.1334 809.054 Q27.4968 806.03 27.4968 803.165 Q27.4968 795.431 31.5072 791.611 Q35.5176 787.792 43.6657 787.792 Z" fill="#000000" fill-rule="nonzero" fill-opacity="1" /><path clip-path="url(#clip700)" d="M14.479 775.729 L14.479 769.873 L64.0042 769.873 L64.0042 775.729 L14.479 775.729 Z" fill="#000000" fill-rule="nonzero" fill-opacity="1" /><path clip-path="url(#clip700)" d="M49.9359 758.223 L28.3562 758.223 L28.3562 752.367 L49.7131 752.367 Q54.7739 752.367 57.3202 750.394 Q59.8346 748.42 59.8346 744.473 Q59.8346 739.731 56.8109 736.994 Q53.7872 734.225 48.5673 734.225 L28.3562 734.225 L28.3562 728.368 L64.0042 728.368 L64.0042 734.225 L58.5296 734.225 Q61.7762 736.357 63.3676 739.19 Q64.9272 741.991 64.9272 745.715 Q64.9272 751.858 61.1078 755.04 Q57.2883 758.223 49.9359 758.223 M27.4968 743.487 L27.4968 743.487 Z" fill="#000000" fill-rule="nonzero" fill-opacity="1" /><path clip-path="url(#clip700)" d="M44.7161 685.813 L47.5806 685.813 L47.5806 712.74 Q53.6281 712.358 56.8109 709.112 Q59.9619 705.834 59.9619 700.009 Q59.9619 696.635 59.1344 693.484 Q58.3069 690.301 56.6518 687.182 L62.1899 687.182 Q63.5267 690.333 64.227 693.643 Q64.9272 696.953 64.9272 700.359 Q64.9272 708.889 59.9619 713.886 Q54.9967 718.851 46.5303 718.851 Q37.7774 718.851 32.6531 714.141 Q27.4968 709.398 27.4968 701.378 Q27.4968 694.184 32.1438 690.015 Q36.7589 685.813 44.7161 685.813 M42.9973 691.67 Q38.1912 691.734 35.3266 694.375 Q32.4621 696.985 32.4621 701.314 Q32.4621 706.216 35.2312 709.176 Q38.0002 712.104 43.0292 712.549 L42.9973 691.67 Z" fill="#000000" fill-rule="nonzero" fill-opacity="1" /><path clip-path="url(#clip700)" d="M585.181 16.7545 L585.181 25.383 Q581.049 21.5346 576.35 19.6307 Q571.691 17.7268 566.425 17.7268 Q556.055 17.7268 550.545 24.0867 Q545.036 30.4061 545.036 42.3968 Q545.036 54.3469 550.545 60.7069 Q556.055 67.0263 566.425 67.0263 Q571.691 67.0263 576.35 65.1223 Q581.049 63.2184 585.181 59.3701 L585.181 67.9175 Q580.887 70.8341 576.066 72.2924 Q571.286 73.7508 565.939 73.7508 Q552.206 73.7508 544.307 65.3654 Q536.408 56.9395 536.408 42.3968 Q536.408 27.8135 544.307 19.4281 Q552.206 11.0023 565.939 11.0023 Q571.367 11.0023 576.147 12.4606 Q580.968 13.8784 585.181 16.7545 Z" fill="#000000" fill-rule="nonzero" fill-opacity="1" /><path clip-path="url(#clip700)" d="M635.209 45.1919 L635.209 72.576 L627.756 72.576 L627.756 45.4349 Q627.756 38.994 625.244 35.7938 Q622.732 32.5936 617.709 32.5936 Q611.673 32.5936 608.19 36.4419 Q604.706 40.2903 604.706 46.9338 L604.706 72.576 L597.212 72.576 L597.212 9.54393 L604.706 9.54393 L604.706 34.2544 Q607.38 30.163 610.985 28.1376 Q614.631 26.1121 619.37 26.1121 Q627.188 26.1121 631.199 30.9732 Q635.209 35.7938 635.209 45.1919 Z" fill="#000000" fill-rule="nonzero" fill-opacity="1" /><path clip-path="url(#clip700)" d="M670.695 49.7694 Q661.662 49.7694 658.178 51.8354 Q654.694 53.9013 654.694 58.8839 Q654.694 62.8538 657.287 65.2034 Q659.92 67.5124 664.416 67.5124 Q670.614 67.5124 674.341 63.1374 Q678.108 58.7219 678.108 51.4303 L678.108 49.7694 L670.695 49.7694 M685.562 46.6907 L685.562 72.576 L678.108 72.576 L678.108 65.6895 Q675.556 69.8214 671.748 71.8063 Q667.941 73.7508 662.431 73.7508 Q655.464 73.7508 651.332 69.8619 Q647.24 65.9325 647.24 59.3701 Q647.24 51.7138 652.345 47.825 Q657.489 43.9361 667.657 43.9361 L678.108 43.9361 L678.108 43.2069 Q678.108 38.0623 674.706 35.2672 Q671.343 32.4315 665.226 32.4315 Q661.338 32.4315 657.651 33.3632 Q653.965 34.295 650.562 36.1584 L650.562 29.2718 Q654.654 27.692 658.502 26.9223 Q662.35 26.1121 665.996 26.1121 Q675.84 26.1121 680.701 31.2163 Q685.562 36.3204 685.562 46.6907 Z" fill="#000000" fill-rule="nonzero" fill-opacity="1" /><path clip-path="url(#clip700)" d="M738.629 45.1919 L738.629 72.576 L731.175 72.576 L731.175 45.4349 Q731.175 38.994 728.664 35.7938 Q726.152 32.5936 721.129 32.5936 Q715.093 32.5936 711.609 36.4419 Q708.126 40.2903 708.126 46.9338 L708.126 72.576 L700.631 72.576 L700.631 27.2059 L708.126 27.2059 L708.126 34.2544 Q710.799 30.163 714.404 28.1376 Q718.05 26.1121 722.79 26.1121 Q730.608 26.1121 734.618 30.9732 Q738.629 35.7938 738.629 45.1919 Z" fill="#000000" fill-rule="nonzero" fill-opacity="1" /><path clip-path="url(#clip700)" d="M783.351 49.3643 Q783.351 41.2625 779.989 36.8065 Q776.667 32.3505 770.631 32.3505 Q764.636 32.3505 761.273 36.8065 Q757.952 41.2625 757.952 49.3643 Q757.952 57.4256 761.273 61.8816 Q764.636 66.3376 770.631 66.3376 Q776.667 66.3376 779.989 61.8816 Q783.351 57.4256 783.351 49.3643 M790.804 66.9452 Q790.804 78.5308 785.66 84.1616 Q780.515 89.8329 769.902 89.8329 Q765.972 89.8329 762.489 89.2252 Q759.005 88.6581 755.724 87.4428 L755.724 80.1917 Q759.005 81.9741 762.205 82.8248 Q765.405 83.6755 768.727 83.6755 Q776.059 83.6755 779.705 79.8271 Q783.351 76.0193 783.351 68.282 L783.351 64.5957 Q781.042 68.6061 777.436 70.5911 Q773.831 72.576 768.808 72.576 Q760.463 72.576 755.359 66.2161 Q750.255 59.8562 750.255 49.3643 Q750.255 38.832 755.359 32.472 Q760.463 26.1121 768.808 26.1121 Q773.831 26.1121 777.436 28.0971 Q781.042 30.082 783.351 34.0924 L783.351 27.2059 L790.804 27.2059 L790.804 66.9452 Z" fill="#000000" fill-rule="nonzero" fill-opacity="1" /><path clip-path="url(#clip700)" d="M844.965 48.0275 L844.965 51.6733 L810.694 51.6733 Q811.181 59.3701 815.312 63.421 Q819.485 67.4314 826.898 67.4314 Q831.192 67.4314 835.202 66.3781 Q839.253 65.3249 843.223 63.2184 L843.223 70.267 Q839.213 71.9684 835 72.8596 Q830.787 73.7508 826.452 73.7508 Q815.596 73.7508 809.236 67.4314 Q802.917 61.1119 802.917 50.3365 Q802.917 39.1965 808.912 32.6746 Q814.948 26.1121 825.156 26.1121 Q834.311 26.1121 839.618 32.0264 Q844.965 37.9003 844.965 48.0275 M837.511 45.84 Q837.43 39.7232 834.068 36.0774 Q830.746 32.4315 825.237 32.4315 Q818.999 32.4315 815.231 35.9558 Q811.505 39.4801 810.937 45.8805 L837.511 45.84 Z" fill="#000000" fill-rule="nonzero" fill-opacity="1" /><path clip-path="url(#clip700)" d="M883.57 27.2059 L891.024 27.2059 L891.024 72.576 L883.57 72.576 L883.57 27.2059 M883.57 9.54393 L891.024 9.54393 L891.024 18.9825 L883.57 18.9825 L883.57 9.54393 Z" fill="#000000" fill-rule="nonzero" fill-opacity="1" /><path clip-path="url(#clip700)" d="M944.334 45.1919 L944.334 72.576 L936.88 72.576 L936.88 45.4349 Q936.88 38.994 934.369 35.7938 Q931.857 32.5936 926.834 32.5936 Q920.798 32.5936 917.314 36.4419 Q913.83 40.2903 913.83 46.9338 L913.83 72.576 L906.336 72.576 L906.336 27.2059 L913.83 27.2059 L913.83 34.2544 Q916.504 30.163 920.109 28.1376 Q923.755 26.1121 928.495 26.1121 Q936.313 26.1121 940.323 30.9732 Q944.334 35.7938 944.334 45.1919 Z" fill="#000000" fill-rule="nonzero" fill-opacity="1" /><path clip-path="url(#clip700)" d="M1024.38 48.0275 L1024.38 51.6733 L990.109 51.6733 Q990.595 59.3701 994.727 63.421 Q998.899 67.4314 1006.31 67.4314 Q1010.61 67.4314 1014.62 66.3781 Q1018.67 65.3249 1022.64 63.2184 L1022.64 70.267 Q1018.63 71.9684 1014.41 72.8596 Q1010.2 73.7508 1005.87 73.7508 Q995.011 73.7508 988.651 67.4314 Q982.331 61.1119 982.331 50.3365 Q982.331 39.1965 988.327 32.6746 Q994.362 26.1121 1004.57 26.1121 Q1013.73 26.1121 1019.03 32.0264 Q1024.38 37.9003 1024.38 48.0275 M1016.93 45.84 Q1016.84 39.7232 1013.48 36.0774 Q1010.16 32.4315 1004.65 32.4315 Q998.413 32.4315 994.646 35.9558 Q990.919 39.4801 990.352 45.8805 L1016.93 45.84 Z" fill="#000000" fill-rule="nonzero" fill-opacity="1" /><path clip-path="url(#clip700)" d="M1072.87 27.2059 L1056.46 49.2833 L1073.72 72.576 L1064.93 72.576 L1051.72 54.752 L1038.52 72.576 L1029.73 72.576 L1047.35 48.8377 L1031.23 27.2059 L1040.02 27.2059 L1052.05 43.369 L1064.08 27.2059 L1072.87 27.2059 Z" fill="#000000" fill-rule="nonzero" fill-opacity="1" /><path clip-path="url(#clip700)" d="M1091.46 65.7705 L1091.46 89.8329 L1083.97 89.8329 L1083.97 27.2059 L1091.46 27.2059 L1091.46 34.0924 Q1093.81 30.0415 1097.38 28.0971 Q1100.98 26.1121 1105.96 26.1121 Q1114.23 26.1121 1119.37 32.6746 Q1124.56 39.2371 1124.56 49.9314 Q1124.56 60.6258 1119.37 67.1883 Q1114.23 73.7508 1105.96 73.7508 Q1100.98 73.7508 1097.38 71.8063 Q1093.81 69.8214 1091.46 65.7705 M1116.82 49.9314 Q1116.82 41.7081 1113.42 37.0496 Q1110.06 32.3505 1104.14 32.3505 Q1098.23 32.3505 1094.82 37.0496 Q1091.46 41.7081 1091.46 49.9314 Q1091.46 58.1548 1094.82 62.8538 Q1098.23 67.5124 1104.14 67.5124 Q1110.06 67.5124 1113.42 62.8538 Q1116.82 58.1548 1116.82 49.9314 Z" fill="#000000" fill-rule="nonzero" fill-opacity="1" /><path clip-path="url(#clip700)" d="M1175.72 48.0275 L1175.72 51.6733 L1141.45 51.6733 Q1141.94 59.3701 1146.07 63.421 Q1150.24 67.4314 1157.65 67.4314 Q1161.95 67.4314 1165.96 66.3781 Q1170.01 65.3249 1173.98 63.2184 L1173.98 70.267 Q1169.97 71.9684 1165.76 72.8596 Q1161.54 73.7508 1157.21 73.7508 Q1146.35 73.7508 1139.99 67.4314 Q1133.67 61.1119 1133.67 50.3365 Q1133.67 39.1965 1139.67 32.6746 Q1145.7 26.1121 1155.91 26.1121 Q1165.07 26.1121 1170.37 32.0264 Q1175.72 37.9003 1175.72 48.0275 M1168.27 45.84 Q1168.19 39.7232 1164.82 36.0774 Q1161.5 32.4315 1155.99 32.4315 Q1149.76 32.4315 1145.99 35.9558 Q1142.26 39.4801 1141.69 45.8805 L1168.27 45.84 Z" fill="#000000" fill-rule="nonzero" fill-opacity="1" /><path clip-path="url(#clip700)" d="M1220.61 28.9478 L1220.61 35.9153 Q1217.45 34.1734 1214.25 33.3227 Q1211.09 32.4315 1207.85 32.4315 Q1200.59 32.4315 1196.58 37.0496 Q1192.57 41.6271 1192.57 49.9314 Q1192.57 58.2358 1196.58 62.8538 Q1200.59 67.4314 1207.85 67.4314 Q1211.09 67.4314 1214.25 66.5807 Q1217.45 65.6895 1220.61 63.9476 L1220.61 70.8341 Q1217.49 72.2924 1214.12 73.0216 Q1210.8 73.7508 1207.03 73.7508 Q1196.79 73.7508 1190.75 67.3098 Q1184.71 60.8689 1184.71 49.9314 Q1184.71 38.832 1190.79 32.472 Q1196.91 26.1121 1207.52 26.1121 Q1210.96 26.1121 1214.25 26.8413 Q1217.53 27.5299 1220.61 28.9478 Z" fill="#000000" fill-rule="nonzero" fill-opacity="1" /><path clip-path="url(#clip700)" d="M1240.94 14.324 L1240.94 27.2059 L1256.29 27.2059 L1256.29 32.9987 L1240.94 32.9987 L1240.94 57.6282 Q1240.94 63.1779 1242.44 64.7578 Q1243.98 66.3376 1248.64 66.3376 L1256.29 66.3376 L1256.29 72.576 L1248.64 72.576 Q1240.01 72.576 1236.73 69.3758 Q1233.45 66.1351 1233.45 57.6282 L1233.45 32.9987 L1227.98 32.9987 L1227.98 27.2059 L1233.45 27.2059 L1233.45 14.324 L1240.94 14.324 Z" fill="#000000" fill-rule="nonzero" fill-opacity="1" /><path clip-path="url(#clip700)" d="M1304.9 48.0275 L1304.9 51.6733 L1270.63 51.6733 Q1271.12 59.3701 1275.25 63.421 Q1279.42 67.4314 1286.84 67.4314 Q1291.13 67.4314 1295.14 66.3781 Q1299.19 65.3249 1303.16 63.2184 L1303.16 70.267 Q1299.15 71.9684 1294.94 72.8596 Q1290.73 73.7508 1286.39 73.7508 Q1275.54 73.7508 1269.18 67.4314 Q1262.86 61.1119 1262.86 50.3365 Q1262.86 39.1965 1268.85 32.6746 Q1274.89 26.1121 1285.1 26.1121 Q1294.25 26.1121 1299.56 32.0264 Q1304.9 37.9003 1304.9 48.0275 M1297.45 45.84 Q1297.37 39.7232 1294.01 36.0774 Q1290.69 32.4315 1285.18 32.4315 Q1278.94 32.4315 1275.17 35.9558 Q1271.44 39.4801 1270.88 45.8805 L1297.45 45.84 Z" fill="#000000" fill-rule="nonzero" fill-opacity="1" /><path clip-path="url(#clip700)" d="M1346.99 34.0924 L1346.99 9.54393 L1354.45 9.54393 L1354.45 72.576 L1346.99 72.576 L1346.99 65.7705 Q1344.64 69.8214 1341.04 71.8063 Q1337.47 73.7508 1332.45 73.7508 Q1324.23 73.7508 1319.04 67.1883 Q1313.9 60.6258 1313.9 49.9314 Q1313.9 39.2371 1319.04 32.6746 Q1324.23 26.1121 1332.45 26.1121 Q1337.47 26.1121 1341.04 28.0971 Q1344.64 30.0415 1346.99 34.0924 M1321.59 49.9314 Q1321.59 58.1548 1324.96 62.8538 Q1328.36 67.5124 1334.27 67.5124 Q1340.19 67.5124 1343.59 62.8538 Q1346.99 58.1548 1346.99 49.9314 Q1346.99 41.7081 1343.59 37.0496 Q1340.19 32.3505 1334.27 32.3505 Q1328.36 32.3505 1324.96 37.0496 Q1321.59 41.7081 1321.59 49.9314 Z" fill="#000000" fill-rule="nonzero" fill-opacity="1" /><path clip-path="url(#clip700)" d="M1390.82 27.2059 L1398.72 27.2059 L1412.9 65.2844 L1427.08 27.2059 L1434.98 27.2059 L1417.97 72.576 L1407.84 72.576 L1390.82 27.2059 Z" fill="#000000" fill-rule="nonzero" fill-opacity="1" /><path clip-path="url(#clip700)" d="M1465.89 49.7694 Q1456.85 49.7694 1453.37 51.8354 Q1449.89 53.9013 1449.89 58.8839 Q1449.89 62.8538 1452.48 65.2034 Q1455.11 67.5124 1459.61 67.5124 Q1465.81 67.5124 1469.53 63.1374 Q1473.3 58.7219 1473.3 51.4303 L1473.3 49.7694 L1465.89 49.7694 M1480.75 46.6907 L1480.75 72.576 L1473.3 72.576 L1473.3 65.6895 Q1470.75 69.8214 1466.94 71.8063 Q1463.13 73.7508 1457.62 73.7508 Q1450.66 73.7508 1446.52 69.8619 Q1442.43 65.9325 1442.43 59.3701 Q1442.43 51.7138 1447.54 47.825 Q1452.68 43.9361 1462.85 43.9361 L1473.3 43.9361 L1473.3 43.2069 Q1473.3 38.0623 1469.9 35.2672 Q1466.54 32.4315 1460.42 32.4315 Q1456.53 32.4315 1452.84 33.3632 Q1449.16 34.295 1445.75 36.1584 L1445.75 29.2718 Q1449.85 27.692 1453.69 26.9223 Q1457.54 26.1121 1461.19 26.1121 Q1471.03 26.1121 1475.89 31.2163 Q1480.75 36.3204 1480.75 46.6907 Z" fill="#000000" fill-rule="nonzero" fill-opacity="1" /><path clip-path="url(#clip700)" d="M1496.11 9.54393 L1503.56 9.54393 L1503.56 72.576 L1496.11 72.576 L1496.11 9.54393 Z" fill="#000000" fill-rule="nonzero" fill-opacity="1" /><path clip-path="url(#clip700)" d="M1518.39 54.671 L1518.39 27.2059 L1525.84 27.2059 L1525.84 54.3874 Q1525.84 60.8284 1528.35 64.0691 Q1530.86 67.2693 1535.89 67.2693 Q1541.92 67.2693 1545.41 63.421 Q1548.93 59.5726 1548.93 52.9291 L1548.93 27.2059 L1556.38 27.2059 L1556.38 72.576 L1548.93 72.576 L1548.93 65.6084 Q1546.22 69.7404 1542.61 71.7658 Q1539.05 73.7508 1534.31 73.7508 Q1526.49 73.7508 1522.44 68.8897 Q1518.39 64.0286 1518.39 54.671 M1537.14 26.1121 L1537.14 26.1121 Z" fill="#000000" fill-rule="nonzero" fill-opacity="1" /><path clip-path="url(#clip700)" d="M1610.55 48.0275 L1610.55 51.6733 L1576.27 51.6733 Q1576.76 59.3701 1580.89 63.421 Q1585.07 67.4314 1592.48 67.4314 Q1596.77 67.4314 1600.78 66.3781 Q1604.83 65.3249 1608.8 63.2184 L1608.8 70.267 Q1604.79 71.9684 1600.58 72.8596 Q1596.37 73.7508 1592.03 73.7508 Q1581.18 73.7508 1574.82 67.4314 Q1568.5 61.1119 1568.5 50.3365 Q1568.5 39.1965 1574.49 32.6746 Q1580.53 26.1121 1590.74 26.1121 Q1599.89 26.1121 1605.2 32.0264 Q1610.55 37.9003 1610.55 48.0275 M1603.09 45.84 Q1603.01 39.7232 1599.65 36.0774 Q1596.33 32.4315 1590.82 32.4315 Q1584.58 32.4315 1580.81 35.9558 Q1577.08 39.4801 1576.52 45.8805 L1603.09 45.84 Z" fill="#000000" fill-rule="nonzero" fill-opacity="1" /><path clip-path="url(#clip700)" d="M1666.73 32.4315 Q1660.74 32.4315 1657.25 37.1306 Q1653.77 41.7891 1653.77 49.9314 Q1653.77 58.0738 1657.21 62.7728 Q1660.7 67.4314 1666.73 67.4314 Q1672.69 67.4314 1676.17 62.7323 Q1679.65 58.0333 1679.65 49.9314 Q1679.65 41.8701 1676.17 37.1711 Q1672.69 32.4315 1666.73 32.4315 M1666.73 26.1121 Q1676.45 26.1121 1682 32.4315 Q1687.55 38.7509 1687.55 49.9314 Q1687.55 61.0714 1682 67.4314 Q1676.45 73.7508 1666.73 73.7508 Q1656.97 73.7508 1651.42 67.4314 Q1645.91 61.0714 1645.91 49.9314 Q1645.91 38.7509 1651.42 32.4315 Q1656.97 26.1121 1666.73 26.1121 Z" fill="#000000" fill-rule="nonzero" fill-opacity="1" /><path clip-path="url(#clip700)" d="M1694.56 27.2059 L1702.46 27.2059 L1716.64 65.2844 L1730.82 27.2059 L1738.72 27.2059 L1721.7 72.576 L1711.58 72.576 L1694.56 27.2059 Z" fill="#000000" fill-rule="nonzero" fill-opacity="1" /><path clip-path="url(#clip700)" d="M1787.81 48.0275 L1787.81 51.6733 L1753.54 51.6733 Q1754.03 59.3701 1758.16 63.421 Q1762.33 67.4314 1769.75 67.4314 Q1774.04 67.4314 1778.05 66.3781 Q1782.1 65.3249 1786.07 63.2184 L1786.07 70.267 Q1782.06 71.9684 1777.85 72.8596 Q1773.63 73.7508 1769.3 73.7508 Q1758.44 73.7508 1752.08 67.4314 Q1745.76 61.1119 1745.76 50.3365 Q1745.76 39.1965 1751.76 32.6746 Q1757.8 26.1121 1768 26.1121 Q1777.16 26.1121 1782.47 32.0264 Q1787.81 37.9003 1787.81 48.0275 M1780.36 45.84 Q1780.28 39.7232 1776.92 36.0774 Q1773.59 32.4315 1768.09 32.4315 Q1761.85 32.4315 1758.08 35.9558 Q1754.35 39.4801 1753.79 45.8805 L1780.36 45.84 Z" fill="#000000" fill-rule="nonzero" fill-opacity="1" /><path clip-path="url(#clip700)" d="M1826.34 34.1734 Q1825.08 33.4443 1823.58 33.1202 Q1822.12 32.7556 1820.34 32.7556 Q1814.02 32.7556 1810.62 36.8875 Q1807.26 40.9789 1807.26 48.6757 L1807.26 72.576 L1799.76 72.576 L1799.76 27.2059 L1807.26 27.2059 L1807.26 34.2544 Q1809.61 30.1225 1813.37 28.1376 Q1817.14 26.1121 1822.53 26.1121 Q1823.3 26.1121 1824.23 26.2337 Q1825.16 26.3147 1826.3 26.5172 L1826.34 34.1734 Z" fill="#000000" fill-rule="nonzero" fill-opacity="1" /><path clip-path="url(#clip700)" d="M1867.9 14.324 L1867.9 27.2059 L1883.25 27.2059 L1883.25 32.9987 L1867.9 32.9987 L1867.9 57.6282 Q1867.9 63.1779 1869.4 64.7578 Q1870.94 66.3376 1875.6 66.3376 L1883.25 66.3376 L1883.25 72.576 L1875.6 72.576 Q1866.97 72.576 1863.69 69.3758 Q1860.41 66.1351 1860.41 57.6282 L1860.41 32.9987 L1854.94 32.9987 L1854.94 27.2059 L1860.41 27.2059 L1860.41 14.324 L1867.9 14.324 Z" fill="#000000" fill-rule="nonzero" fill-opacity="1" /><path clip-path="url(#clip700)" d="M1893.06 27.2059 L1900.51 27.2059 L1900.51 72.576 L1893.06 72.576 L1893.06 27.2059 M1893.06 9.54393 L1900.51 9.54393 L1900.51 18.9825 L1893.06 18.9825 L1893.06 9.54393 Z" fill="#000000" fill-rule="nonzero" fill-opacity="1" /><path clip-path="url(#clip700)" d="M1951.43 35.9153 Q1954.22 30.8922 1958.11 28.5022 Q1962 26.1121 1967.27 26.1121 Q1974.36 26.1121 1978.21 31.0947 Q1982.05 36.0368 1982.05 45.1919 L1982.05 72.576 L1974.56 72.576 L1974.56 45.4349 Q1974.56 38.913 1972.25 35.7533 Q1969.94 32.5936 1965.2 32.5936 Q1959.41 32.5936 1956.05 36.4419 Q1952.68 40.2903 1952.68 46.9338 L1952.68 72.576 L1945.19 72.576 L1945.19 45.4349 Q1945.19 38.8725 1942.88 35.7533 Q1940.57 32.5936 1935.75 32.5936 Q1930.04 32.5936 1926.68 36.4824 Q1923.32 40.3308 1923.32 46.9338 L1923.32 72.576 L1915.82 72.576 L1915.82 27.2059 L1923.32 27.2059 L1923.32 34.2544 Q1925.87 30.082 1929.43 28.0971 Q1933 26.1121 1937.9 26.1121 Q1942.84 26.1121 1946.28 28.6237 Q1949.77 31.1352 1951.43 35.9153 Z" fill="#000000" fill-rule="nonzero" fill-opacity="1" /><path clip-path="url(#clip700)" d="M2035.73 48.0275 L2035.73 51.6733 L2001.46 51.6733 Q2001.94 59.3701 2006.08 63.421 Q2010.25 67.4314 2017.66 67.4314 Q2021.96 67.4314 2025.97 66.3781 Q2030.02 65.3249 2033.99 63.2184 L2033.99 70.267 Q2029.98 71.9684 2025.76 72.8596 Q2021.55 73.7508 2017.22 73.7508 Q2006.36 73.7508 2000 67.4314 Q1993.68 61.1119 1993.68 50.3365 Q1993.68 39.1965 1999.68 32.6746 Q2005.71 26.1121 2015.92 26.1121 Q2025.07 26.1121 2030.38 32.0264 Q2035.73 37.9003 2035.73 48.0275 M2028.27 45.84 Q2028.19 39.7232 2024.83 36.0774 Q2021.51 32.4315 2016 32.4315 Q2009.76 32.4315 2005.99 35.9558 Q2002.27 39.4801 2001.7 45.8805 L2028.27 45.84 Z" fill="#000000" fill-rule="nonzero" fill-opacity="1" /><polyline clip-path="url(#clip702)" style="stroke:#009af9; stroke-linecap:round; stroke-linejoin:round; stroke-width:4; stroke-opacity:1; fill:none" points="279.759,1386.4 375.598,1349.65 471.437,1346.65 567.276,1286.78 663.115,1261.66 758.954,1086.86 854.793,1061.25 950.632,1050.08 1046.47,1060.61 1142.31,984.299 1238.15,863.425 1333.99,830.971 1429.83,799.324 1525.67,705.773 1621.5,613.123 1717.34,541.867 1813.18,661.159 1909.02,544.796 2004.86,448.534 2100.7,356.358 2196.54,252.304 2292.38,178.666 "/>
<circle clip-path="url(#clip702)" cx="375.598" cy="1340.47" r="14.4" fill="#e26f46" fill-rule="evenodd" fill-opacity="1" stroke="#000000" stroke-opacity="1" stroke-width="3.2"/>
<circle clip-path="url(#clip702)" cx="471.437" cy="1345.9" r="14.4" fill="#e26f46" fill-rule="evenodd" fill-opacity="1" stroke="#000000" stroke-opacity="1" stroke-width="3.2"/>
<circle clip-path="url(#clip702)" cx="567.276" cy="1271.81" r="14.4" fill="#e26f46" fill-rule="evenodd" fill-opacity="1" stroke="#000000" stroke-opacity="1" stroke-width="3.2"/>
<circle clip-path="url(#clip702)" cx="663.115" cy="1255.38" r="14.4" fill="#e26f46" fill-rule="evenodd" fill-opacity="1" stroke="#000000" stroke-opacity="1" stroke-width="3.2"/>
<circle clip-path="url(#clip702)" cx="758.954" cy="1043.16" r="14.4" fill="#e26f46" fill-rule="evenodd" fill-opacity="1" stroke="#000000" stroke-opacity="1" stroke-width="3.2"/>
<circle clip-path="url(#clip702)" cx="854.793" cy="1054.85" r="14.4" fill="#e26f46" fill-rule="evenodd" fill-opacity="1" stroke="#000000" stroke-opacity="1" stroke-width="3.2"/>
<circle clip-path="url(#clip702)" cx="950.632" cy="1047.29" r="14.4" fill="#e26f46" fill-rule="evenodd" fill-opacity="1" stroke="#000000" stroke-opacity="1" stroke-width="3.2"/>
<circle clip-path="url(#clip702)" cx="1046.47" cy="1063.25" r="14.4" fill="#e26f46" fill-rule="evenodd" fill-opacity="1" stroke="#000000" stroke-opacity="1" stroke-width="3.2"/>
<circle clip-path="url(#clip702)" cx="1142.31" cy="965.22" r="14.4" fill="#e26f46" fill-rule="evenodd" fill-opacity="1" stroke="#000000" stroke-opacity="1" stroke-width="3.2"/>
<circle clip-path="url(#clip702)" cx="1238.15" cy="833.206" r="14.4" fill="#e26f46" fill-rule="evenodd" fill-opacity="1" stroke="#000000" stroke-opacity="1" stroke-width="3.2"/>
<circle clip-path="url(#clip702)" cx="1333.99" cy="822.858" r="14.4" fill="#e26f46" fill-rule="evenodd" fill-opacity="1" stroke="#000000" stroke-opacity="1" stroke-width="3.2"/>
<circle clip-path="url(#clip702)" cx="1429.83" cy="791.412" r="14.4" fill="#e26f46" fill-rule="evenodd" fill-opacity="1" stroke="#000000" stroke-opacity="1" stroke-width="3.2"/>
<circle clip-path="url(#clip702)" cx="1525.67" cy="682.385" r="14.4" fill="#e26f46" fill-rule="evenodd" fill-opacity="1" stroke="#000000" stroke-opacity="1" stroke-width="3.2"/>
<circle clip-path="url(#clip702)" cx="1621.5" cy="589.961" r="14.4" fill="#e26f46" fill-rule="evenodd" fill-opacity="1" stroke="#000000" stroke-opacity="1" stroke-width="3.2"/>
<circle clip-path="url(#clip702)" cx="1717.34" cy="524.053" r="14.4" fill="#e26f46" fill-rule="evenodd" fill-opacity="1" stroke="#000000" stroke-opacity="1" stroke-width="3.2"/>
<circle clip-path="url(#clip702)" cx="1813.18" cy="690.982" r="14.4" fill="#e26f46" fill-rule="evenodd" fill-opacity="1" stroke="#000000" stroke-opacity="1" stroke-width="3.2"/>
<circle clip-path="url(#clip702)" cx="1909.02" cy="515.705" r="14.4" fill="#e26f46" fill-rule="evenodd" fill-opacity="1" stroke="#000000" stroke-opacity="1" stroke-width="3.2"/>
<circle clip-path="url(#clip702)" cx="2004.86" cy="424.468" r="14.4" fill="#e26f46" fill-rule="evenodd" fill-opacity="1" stroke="#000000" stroke-opacity="1" stroke-width="3.2"/>
<circle clip-path="url(#clip702)" cx="2100.7" cy="333.314" r="14.4" fill="#e26f46" fill-rule="evenodd" fill-opacity="1" stroke="#000000" stroke-opacity="1" stroke-width="3.2"/>
<circle clip-path="url(#clip702)" cx="2196.54" cy="226.291" r="14.4" fill="#e26f46" fill-rule="evenodd" fill-opacity="1" stroke="#000000" stroke-opacity="1" stroke-width="3.2"/>
<circle clip-path="url(#clip702)" cx="2292.38" cy="160.256" r="14.4" fill="#e26f46" fill-rule="evenodd" fill-opacity="1" stroke="#000000" stroke-opacity="1" stroke-width="3.2"/>
<circle clip-path="url(#clip702)" cx="375.598" cy="1310.11" r="14.4" fill="#3da44d" fill-rule="evenodd" fill-opacity="1" stroke="#000000" stroke-opacity="1" stroke-width="3.2"/>
<circle clip-path="url(#clip702)" cx="471.437" cy="1348.52" r="14.4" fill="#3da44d" fill-rule="evenodd" fill-opacity="1" stroke="#000000" stroke-opacity="1" stroke-width="3.2"/>
<circle clip-path="url(#clip702)" cx="567.276" cy="1244.89" r="14.4" fill="#3da44d" fill-rule="evenodd" fill-opacity="1" stroke="#000000" stroke-opacity="1" stroke-width="3.2"/>
<circle clip-path="url(#clip702)" cx="663.115" cy="1183.54" r="14.4" fill="#3da44d" fill-rule="evenodd" fill-opacity="1" stroke="#000000" stroke-opacity="1" stroke-width="3.2"/>
<circle clip-path="url(#clip702)" cx="758.954" cy="1075.14" r="14.4" fill="#3da44d" fill-rule="evenodd" fill-opacity="1" stroke="#000000" stroke-opacity="1" stroke-width="3.2"/>
<circle clip-path="url(#clip702)" cx="854.793" cy="988.714" r="14.4" fill="#3da44d" fill-rule="evenodd" fill-opacity="1" stroke="#000000" stroke-opacity="1" stroke-width="3.2"/>
<circle clip-path="url(#clip702)" cx="950.632" cy="1057.93" r="14.4" fill="#3da44d" fill-rule="evenodd" fill-opacity="1" stroke="#000000" stroke-opacity="1" stroke-width="3.2"/>
<circle clip-path="url(#clip702)" cx="1046.47" cy="1019.53" r="14.4" fill="#3da44d" fill-rule="evenodd" fill-opacity="1" stroke="#000000" stroke-opacity="1" stroke-width="3.2"/>
<circle clip-path="url(#clip702)" cx="1142.31" cy="1043.79" r="14.4" fill="#3da44d" fill-rule="evenodd" fill-opacity="1" stroke="#000000" stroke-opacity="1" stroke-width="3.2"/>
<circle clip-path="url(#clip702)" cx="1238.15" cy="793.597" r="14.4" fill="#3da44d" fill-rule="evenodd" fill-opacity="1" stroke="#000000" stroke-opacity="1" stroke-width="3.2"/>
<circle clip-path="url(#clip702)" cx="1333.99" cy="846.088" r="14.4" fill="#3da44d" fill-rule="evenodd" fill-opacity="1" stroke="#000000" stroke-opacity="1" stroke-width="3.2"/>
<circle clip-path="url(#clip702)" cx="1429.83" cy="838.599" r="14.4" fill="#3da44d" fill-rule="evenodd" fill-opacity="1" stroke="#000000" stroke-opacity="1" stroke-width="3.2"/>
<circle clip-path="url(#clip702)" cx="1525.67" cy="754.891" r="14.4" fill="#3da44d" fill-rule="evenodd" fill-opacity="1" stroke="#000000" stroke-opacity="1" stroke-width="3.2"/>
<circle clip-path="url(#clip702)" cx="1621.5" cy="617.299" r="14.4" fill="#3da44d" fill-rule="evenodd" fill-opacity="1" stroke="#000000" stroke-opacity="1" stroke-width="3.2"/>
<circle clip-path="url(#clip702)" cx="1717.34" cy="539.563" r="14.4" fill="#3da44d" fill-rule="evenodd" fill-opacity="1" stroke="#000000" stroke-opacity="1" stroke-width="3.2"/>
<circle clip-path="url(#clip702)" cx="1813.18" cy="621.064" r="14.4" fill="#3da44d" fill-rule="evenodd" fill-opacity="1" stroke="#000000" stroke-opacity="1" stroke-width="3.2"/>
<circle clip-path="url(#clip702)" cx="1909.02" cy="497.308" r="14.4" fill="#3da44d" fill-rule="evenodd" fill-opacity="1" stroke="#000000" stroke-opacity="1" stroke-width="3.2"/>
<circle clip-path="url(#clip702)" cx="2004.86" cy="512.763" r="14.4" fill="#3da44d" fill-rule="evenodd" fill-opacity="1" stroke="#000000" stroke-opacity="1" stroke-width="3.2"/>
<circle clip-path="url(#clip702)" cx="2100.7" cy="417.019" r="14.4" fill="#3da44d" fill-rule="evenodd" fill-opacity="1" stroke="#000000" stroke-opacity="1" stroke-width="3.2"/>
<circle clip-path="url(#clip702)" cx="2196.54" cy="163.654" r="14.4" fill="#3da44d" fill-rule="evenodd" fill-opacity="1" stroke="#000000" stroke-opacity="1" stroke-width="3.2"/>
<circle clip-path="url(#clip702)" cx="2292.38" cy="262.392" r="14.4" fill="#3da44d" fill-rule="evenodd" fill-opacity="1" stroke="#000000" stroke-opacity="1" stroke-width="3.2"/>
<path clip-path="url(#clip700)" d="M290.493 374.156 L862.81 374.156 L862.81 166.796 L290.493 166.796  Z" fill="#ffffff" fill-rule="evenodd" fill-opacity="1"/>
<polyline clip-path="url(#clip700)" style="stroke:#000000; stroke-linecap:round; stroke-linejoin:round; stroke-width:4; stroke-opacity:1; fill:none" points="290.493,374.156 862.81,374.156 862.81,166.796 290.493,166.796 290.493,374.156 "/>
<polyline clip-path="url(#clip700)" style="stroke:#009af9; stroke-linecap:round; stroke-linejoin:round; stroke-width:4; stroke-opacity:1; fill:none" points="314.197,218.636 456.422,218.636 "/>
<path clip-path="url(#clip700)" d="M504.154 221.888 L504.154 223.971 L484.571 223.971 Q484.848 228.369 487.209 230.684 Q489.594 232.976 493.83 232.976 Q496.283 232.976 498.575 232.374 Q500.89 231.772 503.158 230.569 L503.158 234.596 Q500.867 235.568 498.459 236.078 Q496.052 236.587 493.575 236.587 Q487.371 236.587 483.737 232.976 Q480.126 229.365 480.126 223.207 Q480.126 216.842 483.552 213.115 Q487.001 209.365 492.834 209.365 Q498.066 209.365 501.098 212.745 Q504.154 216.101 504.154 221.888 M499.894 220.638 Q499.848 217.143 497.927 215.059 Q496.029 212.976 492.881 212.976 Q489.316 212.976 487.163 214.99 Q485.033 217.004 484.709 220.661 L499.894 220.638 Z" fill="#000000" fill-rule="nonzero" fill-opacity="1" /><path clip-path="url(#clip700)" d="M531.862 209.99 L522.487 222.606 L532.348 235.916 L527.325 235.916 L519.779 225.731 L512.232 235.916 L507.209 235.916 L517.279 222.351 L508.066 209.99 L513.089 209.99 L519.964 219.226 L526.839 209.99 L531.862 209.99 Z" fill="#000000" fill-rule="nonzero" fill-opacity="1" /><path clip-path="url(#clip700)" d="M542.487 232.027 L542.487 245.777 L538.204 245.777 L538.204 209.99 L542.487 209.99 L542.487 213.925 Q543.829 211.61 545.866 210.499 Q547.927 209.365 550.774 209.365 Q555.496 209.365 558.436 213.115 Q561.399 216.865 561.399 222.976 Q561.399 229.087 558.436 232.837 Q555.496 236.587 550.774 236.587 Q547.927 236.587 545.866 235.476 Q543.829 234.342 542.487 232.027 M556.978 222.976 Q556.978 218.277 555.033 215.615 Q553.112 212.93 549.732 212.93 Q546.353 212.93 544.408 215.615 Q542.487 218.277 542.487 222.976 Q542.487 227.675 544.408 230.36 Q546.353 233.022 549.732 233.022 Q553.112 233.022 555.033 230.36 Q556.978 227.675 556.978 222.976 Z" fill="#000000" fill-rule="nonzero" fill-opacity="1" /><path clip-path="url(#clip700)" d="M590.635 221.888 L590.635 223.971 L571.052 223.971 Q571.329 228.369 573.69 230.684 Q576.075 232.976 580.311 232.976 Q582.764 232.976 585.056 232.374 Q587.371 231.772 589.639 230.569 L589.639 234.596 Q587.348 235.568 584.94 236.078 Q582.533 236.587 580.056 236.587 Q573.852 236.587 570.218 232.976 Q566.607 229.365 566.607 223.207 Q566.607 216.842 570.033 213.115 Q573.482 209.365 579.315 209.365 Q584.547 209.365 587.579 212.745 Q590.635 216.101 590.635 221.888 M586.376 220.638 Q586.329 217.143 584.408 215.059 Q582.51 212.976 579.362 212.976 Q575.797 212.976 573.644 214.99 Q571.514 217.004 571.19 220.661 L586.376 220.638 Z" fill="#000000" fill-rule="nonzero" fill-opacity="1" /><path clip-path="url(#clip700)" d="M616.283 210.985 L616.283 214.967 Q614.477 213.971 612.649 213.485 Q610.843 212.976 608.991 212.976 Q604.848 212.976 602.556 215.615 Q600.264 218.231 600.264 222.976 Q600.264 227.721 602.556 230.36 Q604.848 232.976 608.991 232.976 Q610.843 232.976 612.649 232.49 Q614.477 231.981 616.283 230.985 L616.283 234.92 Q614.5 235.754 612.579 236.17 Q610.681 236.587 608.528 236.587 Q602.672 236.587 599.223 232.906 Q595.774 229.226 595.774 222.976 Q595.774 216.633 599.246 212.999 Q602.741 209.365 608.806 209.365 Q610.774 209.365 612.649 209.782 Q614.524 210.175 616.283 210.985 Z" fill="#000000" fill-rule="nonzero" fill-opacity="1" /><path clip-path="url(#clip700)" d="M627.903 202.629 L627.903 209.99 L636.676 209.99 L636.676 213.3 L627.903 213.3 L627.903 227.374 Q627.903 230.545 628.76 231.448 Q629.639 232.351 632.301 232.351 L636.676 232.351 L636.676 235.916 L632.301 235.916 Q627.371 235.916 625.496 234.087 Q623.621 232.235 623.621 227.374 L623.621 213.3 L620.496 213.3 L620.496 209.99 L623.621 209.99 L623.621 202.629 L627.903 202.629 Z" fill="#000000" fill-rule="nonzero" fill-opacity="1" /><path clip-path="url(#clip700)" d="M664.454 221.888 L664.454 223.971 L644.871 223.971 Q645.148 228.369 647.509 230.684 Q649.894 232.976 654.13 232.976 Q656.583 232.976 658.875 232.374 Q661.19 231.772 663.458 230.569 L663.458 234.596 Q661.167 235.568 658.759 236.078 Q656.352 236.587 653.875 236.587 Q647.671 236.587 644.037 232.976 Q640.426 229.365 640.426 223.207 Q640.426 216.842 643.852 213.115 Q647.301 209.365 653.134 209.365 Q658.366 209.365 661.398 212.745 Q664.454 216.101 664.454 221.888 M660.195 220.638 Q660.148 217.143 658.227 215.059 Q656.329 212.976 653.181 212.976 Q649.616 212.976 647.463 214.99 Q645.334 217.004 645.009 220.661 L660.195 220.638 Z" fill="#000000" fill-rule="nonzero" fill-opacity="1" /><path clip-path="url(#clip700)" d="M688.505 213.925 L688.505 199.897 L692.764 199.897 L692.764 235.916 L688.505 235.916 L688.505 232.027 Q687.162 234.342 685.102 235.476 Q683.065 236.587 680.194 236.587 Q675.495 236.587 672.532 232.837 Q669.593 229.087 669.593 222.976 Q669.593 216.865 672.532 213.115 Q675.495 209.365 680.194 209.365 Q683.065 209.365 685.102 210.499 Q687.162 211.61 688.505 213.925 M673.991 222.976 Q673.991 227.675 675.912 230.36 Q677.857 233.022 681.236 233.022 Q684.616 233.022 686.56 230.36 Q688.505 227.675 688.505 222.976 Q688.505 218.277 686.56 215.615 Q684.616 212.93 681.236 212.93 Q677.857 212.93 675.912 215.615 Q673.991 218.277 673.991 222.976 Z" fill="#000000" fill-rule="nonzero" fill-opacity="1" /><path clip-path="url(#clip700)" d="M713.551 209.99 L718.065 209.99 L726.166 231.749 L734.268 209.99 L738.782 209.99 L729.06 235.916 L723.273 235.916 L713.551 209.99 Z" fill="#000000" fill-rule="nonzero" fill-opacity="1" /><path clip-path="url(#clip700)" d="M756.444 222.883 Q751.282 222.883 749.291 224.064 Q747.301 225.244 747.301 228.092 Q747.301 230.36 748.782 231.703 Q750.287 233.022 752.856 233.022 Q756.398 233.022 758.527 230.522 Q760.68 227.999 760.68 223.832 L760.68 222.883 L756.444 222.883 M764.939 221.124 L764.939 235.916 L760.68 235.916 L760.68 231.981 Q759.222 234.342 757.046 235.476 Q754.87 236.587 751.722 236.587 Q747.74 236.587 745.379 234.365 Q743.041 232.119 743.041 228.369 Q743.041 223.994 745.958 221.772 Q748.898 219.55 754.708 219.55 L760.68 219.55 L760.68 219.133 Q760.68 216.194 758.736 214.596 Q756.814 212.976 753.319 212.976 Q751.097 212.976 748.99 213.508 Q746.884 214.041 744.939 215.106 L744.939 211.17 Q747.277 210.268 749.476 209.828 Q751.676 209.365 753.759 209.365 Q759.384 209.365 762.162 212.282 Q764.939 215.198 764.939 221.124 Z" fill="#000000" fill-rule="nonzero" fill-opacity="1" /><path clip-path="url(#clip700)" d="M773.712 199.897 L777.972 199.897 L777.972 235.916 L773.712 235.916 L773.712 199.897 Z" fill="#000000" fill-rule="nonzero" fill-opacity="1" /><path clip-path="url(#clip700)" d="M786.444 225.684 L786.444 209.99 L790.703 209.99 L790.703 225.522 Q790.703 229.203 792.138 231.055 Q793.573 232.883 796.444 232.883 Q799.893 232.883 801.884 230.684 Q803.897 228.485 803.897 224.689 L803.897 209.99 L808.157 209.99 L808.157 235.916 L803.897 235.916 L803.897 231.934 Q802.347 234.295 800.286 235.453 Q798.249 236.587 795.541 236.587 Q791.073 236.587 788.759 233.809 Q786.444 231.031 786.444 225.684 M797.161 209.365 L797.161 209.365 Z" fill="#000000" fill-rule="nonzero" fill-opacity="1" /><path clip-path="url(#clip700)" d="M839.106 221.888 L839.106 223.971 L819.522 223.971 Q819.8 228.369 822.161 230.684 Q824.546 232.976 828.782 232.976 Q831.235 232.976 833.527 232.374 Q835.842 231.772 838.11 230.569 L838.11 234.596 Q835.819 235.568 833.411 236.078 Q831.004 236.587 828.527 236.587 Q822.323 236.587 818.689 232.976 Q815.078 229.365 815.078 223.207 Q815.078 216.842 818.504 213.115 Q821.953 209.365 827.786 209.365 Q833.018 209.365 836.05 212.745 Q839.106 216.101 839.106 221.888 M834.846 220.638 Q834.8 217.143 832.879 215.059 Q830.981 212.976 827.833 212.976 Q824.268 212.976 822.115 214.99 Q819.985 217.004 819.661 220.661 L834.846 220.638 Z" fill="#000000" fill-rule="nonzero" fill-opacity="1" /><circle clip-path="url(#clip700)" cx="385.309" cy="270.476" r="20.48" fill="#e26f46" fill-rule="evenodd" fill-opacity="1" stroke="#000000" stroke-opacity="1" stroke-width="4.55111"/>
<path clip-path="url(#clip700)" d="M492.024 264.816 Q488.598 264.816 486.608 267.501 Q484.617 270.163 484.617 274.816 Q484.617 279.469 486.584 282.154 Q488.575 284.816 492.024 284.816 Q495.427 284.816 497.418 282.131 Q499.408 279.446 499.408 274.816 Q499.408 270.21 497.418 267.524 Q495.427 264.816 492.024 264.816 M492.024 261.205 Q497.58 261.205 500.751 264.816 Q503.922 268.427 503.922 274.816 Q503.922 281.182 500.751 284.816 Q497.58 288.427 492.024 288.427 Q486.445 288.427 483.274 284.816 Q480.126 281.182 480.126 274.816 Q480.126 268.427 483.274 264.816 Q486.445 261.205 492.024 261.205 Z" fill="#000000" fill-rule="nonzero" fill-opacity="1" /><path clip-path="url(#clip700)" d="M529.593 274.816 Q529.593 270.117 527.649 267.455 Q525.728 264.77 522.348 264.77 Q518.968 264.77 517.024 267.455 Q515.103 270.117 515.103 274.816 Q515.103 279.515 517.024 282.2 Q518.968 284.862 522.348 284.862 Q525.728 284.862 527.649 282.2 Q529.593 279.515 529.593 274.816 M515.103 265.765 Q516.445 263.45 518.482 262.339 Q520.543 261.205 523.39 261.205 Q528.112 261.205 531.052 264.955 Q534.015 268.705 534.015 274.816 Q534.015 280.927 531.052 284.677 Q528.112 288.427 523.39 288.427 Q520.543 288.427 518.482 287.316 Q516.445 286.182 515.103 283.867 L515.103 287.756 L510.82 287.756 L510.82 251.737 L515.103 251.737 L515.103 265.765 Z" fill="#000000" fill-rule="nonzero" fill-opacity="1" /><path clip-path="url(#clip700)" d="M557.603 262.594 L557.603 266.622 Q555.797 265.696 553.853 265.233 Q551.908 264.77 549.825 264.77 Q546.654 264.77 545.056 265.742 Q543.482 266.714 543.482 268.659 Q543.482 270.14 544.616 270.997 Q545.751 271.83 549.177 272.594 L550.635 272.918 Q555.172 273.89 557.07 275.672 Q558.991 277.432 558.991 280.603 Q558.991 284.214 556.121 286.321 Q553.274 288.427 548.274 288.427 Q546.191 288.427 543.922 288.01 Q541.677 287.617 539.177 286.807 L539.177 282.409 Q541.538 283.635 543.829 284.26 Q546.121 284.862 548.366 284.862 Q551.376 284.862 552.996 283.844 Q554.616 282.802 554.616 280.927 Q554.616 279.191 553.436 278.265 Q552.278 277.339 548.32 276.483 L546.839 276.135 Q542.88 275.302 541.121 273.589 Q539.362 271.853 539.362 268.844 Q539.362 265.186 541.954 263.196 Q544.547 261.205 549.316 261.205 Q551.677 261.205 553.76 261.552 Q555.843 261.899 557.603 262.594 Z" fill="#000000" fill-rule="nonzero" fill-opacity="1" /><path clip-path="url(#clip700)" d="M587.95 273.728 L587.95 275.811 L568.366 275.811 Q568.644 280.209 571.005 282.524 Q573.389 284.816 577.626 284.816 Q580.079 284.816 582.371 284.214 Q584.686 283.612 586.954 282.409 L586.954 286.436 Q584.663 287.408 582.255 287.918 Q579.848 288.427 577.371 288.427 Q571.167 288.427 567.533 284.816 Q563.922 281.205 563.922 275.047 Q563.922 268.682 567.348 264.955 Q570.797 261.205 576.63 261.205 Q581.862 261.205 584.894 264.585 Q587.95 267.941 587.95 273.728 M583.69 272.478 Q583.644 268.983 581.723 266.899 Q579.825 264.816 576.676 264.816 Q573.112 264.816 570.959 266.83 Q568.829 268.844 568.505 272.501 L583.69 272.478 Z" fill="#000000" fill-rule="nonzero" fill-opacity="1" /><path clip-path="url(#clip700)" d="M609.963 265.811 Q609.246 265.395 608.389 265.21 Q607.556 265.001 606.537 265.001 Q602.926 265.001 600.982 267.362 Q599.061 269.7 599.061 274.098 L599.061 287.756 L594.778 287.756 L594.778 261.83 L599.061 261.83 L599.061 265.858 Q600.403 263.497 602.556 262.362 Q604.709 261.205 607.787 261.205 Q608.227 261.205 608.76 261.274 Q609.292 261.321 609.94 261.436 L609.963 265.811 Z" fill="#000000" fill-rule="nonzero" fill-opacity="1" /><path clip-path="url(#clip700)" d="M611.375 261.83 L615.889 261.83 L623.991 283.589 L632.093 261.83 L636.607 261.83 L626.885 287.756 L621.098 287.756 L611.375 261.83 Z" fill="#000000" fill-rule="nonzero" fill-opacity="1" /><path clip-path="url(#clip700)" d="M654.269 274.723 Q649.107 274.723 647.116 275.904 Q645.125 277.084 645.125 279.932 Q645.125 282.2 646.607 283.543 Q648.111 284.862 650.681 284.862 Q654.222 284.862 656.352 282.362 Q658.505 279.839 658.505 275.672 L658.505 274.723 L654.269 274.723 M662.764 272.964 L662.764 287.756 L658.505 287.756 L658.505 283.821 Q657.046 286.182 654.871 287.316 Q652.695 288.427 649.546 288.427 Q645.565 288.427 643.204 286.205 Q640.866 283.959 640.866 280.209 Q640.866 275.834 643.783 273.612 Q646.722 271.39 652.533 271.39 L658.505 271.39 L658.505 270.973 Q658.505 268.034 656.56 266.436 Q654.639 264.816 651.144 264.816 Q648.921 264.816 646.815 265.348 Q644.709 265.881 642.764 266.946 L642.764 263.01 Q645.102 262.108 647.301 261.668 Q649.5 261.205 651.583 261.205 Q657.208 261.205 659.986 264.122 Q662.764 267.038 662.764 272.964 Z" fill="#000000" fill-rule="nonzero" fill-opacity="1" /><path clip-path="url(#clip700)" d="M675.75 254.469 L675.75 261.83 L684.523 261.83 L684.523 265.14 L675.75 265.14 L675.75 279.214 Q675.75 282.385 676.607 283.288 Q677.486 284.191 680.148 284.191 L684.523 284.191 L684.523 287.756 L680.148 287.756 Q675.218 287.756 673.343 285.927 Q671.468 284.075 671.468 279.214 L671.468 265.14 L668.343 265.14 L668.343 261.83 L671.468 261.83 L671.468 254.469 L675.75 254.469 Z" fill="#000000" fill-rule="nonzero" fill-opacity="1" /><path clip-path="url(#clip700)" d="M690.125 261.83 L694.384 261.83 L694.384 287.756 L690.125 287.756 L690.125 261.83 M690.125 251.737 L694.384 251.737 L694.384 257.131 L690.125 257.131 L690.125 251.737 Z" fill="#000000" fill-rule="nonzero" fill-opacity="1" /><path clip-path="url(#clip700)" d="M713.342 264.816 Q709.917 264.816 707.926 267.501 Q705.935 270.163 705.935 274.816 Q705.935 279.469 707.903 282.154 Q709.893 284.816 713.342 284.816 Q716.745 284.816 718.736 282.131 Q720.727 279.446 720.727 274.816 Q720.727 270.21 718.736 267.524 Q716.745 264.816 713.342 264.816 M713.342 261.205 Q718.898 261.205 722.069 264.816 Q725.241 268.427 725.241 274.816 Q725.241 281.182 722.069 284.816 Q718.898 288.427 713.342 288.427 Q707.764 288.427 704.592 284.816 Q701.444 281.182 701.444 274.816 Q701.444 268.427 704.592 264.816 Q707.764 261.205 713.342 261.205 Z" fill="#000000" fill-rule="nonzero" fill-opacity="1" /><path clip-path="url(#clip700)" d="M753.851 272.108 L753.851 287.756 L749.592 287.756 L749.592 272.247 Q749.592 268.566 748.157 266.737 Q746.722 264.909 743.852 264.909 Q740.402 264.909 738.412 267.108 Q736.421 269.307 736.421 273.103 L736.421 287.756 L732.139 287.756 L732.139 261.83 L736.421 261.83 L736.421 265.858 Q737.949 263.52 740.009 262.362 Q742.092 261.205 744.801 261.205 Q749.268 261.205 751.56 263.983 Q753.851 266.737 753.851 272.108 Z" fill="#000000" fill-rule="nonzero" fill-opacity="1" /><circle clip-path="url(#clip700)" cx="385.309" cy="322.316" r="20.48" fill="#3da44d" fill-rule="evenodd" fill-opacity="1" stroke="#000000" stroke-opacity="1" stroke-width="4.55111"/>
<path clip-path="url(#clip700)" d="M493.529 326.563 Q488.367 326.563 486.376 327.744 Q484.385 328.924 484.385 331.772 Q484.385 334.04 485.867 335.383 Q487.371 336.702 489.941 336.702 Q493.482 336.702 495.612 334.202 Q497.765 331.679 497.765 327.512 L497.765 326.563 L493.529 326.563 M502.024 324.804 L502.024 339.596 L497.765 339.596 L497.765 335.661 Q496.307 338.022 494.131 339.156 Q491.955 340.267 488.807 340.267 Q484.825 340.267 482.464 338.045 Q480.126 335.799 480.126 332.049 Q480.126 327.674 483.043 325.452 Q485.983 323.23 491.793 323.23 L497.765 323.23 L497.765 322.813 Q497.765 319.874 495.82 318.276 Q493.899 316.656 490.404 316.656 Q488.182 316.656 486.075 317.188 Q483.969 317.721 482.024 318.786 L482.024 314.85 Q484.362 313.948 486.561 313.508 Q488.76 313.045 490.844 313.045 Q496.469 313.045 499.246 315.962 Q502.024 318.878 502.024 324.804 Z" fill="#000000" fill-rule="nonzero" fill-opacity="1" /><path clip-path="url(#clip700)" d="M529.455 314.665 L529.455 318.647 Q527.649 317.651 525.82 317.165 Q524.015 316.656 522.163 316.656 Q518.019 316.656 515.728 319.295 Q513.436 321.911 513.436 326.656 Q513.436 331.401 515.728 334.04 Q518.019 336.656 522.163 336.656 Q524.015 336.656 525.82 336.17 Q527.649 335.661 529.455 334.665 L529.455 338.6 Q527.672 339.434 525.751 339.85 Q523.853 340.267 521.7 340.267 Q515.843 340.267 512.394 336.586 Q508.945 332.906 508.945 326.656 Q508.945 320.313 512.418 316.679 Q515.913 313.045 521.978 313.045 Q523.945 313.045 525.82 313.462 Q527.695 313.855 529.455 314.665 Z" fill="#000000" fill-rule="nonzero" fill-opacity="1" /><path clip-path="url(#clip700)" d="M541.075 306.309 L541.075 313.67 L549.848 313.67 L549.848 316.98 L541.075 316.98 L541.075 331.054 Q541.075 334.225 541.931 335.128 Q542.811 336.031 545.473 336.031 L549.848 336.031 L549.848 339.596 L545.473 339.596 Q540.542 339.596 538.667 337.767 Q536.792 335.915 536.792 331.054 L536.792 316.98 L533.667 316.98 L533.667 313.67 L536.792 313.67 L536.792 306.309 L541.075 306.309 Z" fill="#000000" fill-rule="nonzero" fill-opacity="1" /><path clip-path="url(#clip700)" d="M555.45 313.67 L559.709 313.67 L559.709 339.596 L555.45 339.596 L555.45 313.67 M555.45 303.577 L559.709 303.577 L559.709 308.971 L555.45 308.971 L555.45 303.577 Z" fill="#000000" fill-rule="nonzero" fill-opacity="1" /><path clip-path="url(#clip700)" d="M578.667 316.656 Q575.241 316.656 573.251 319.341 Q571.26 322.003 571.26 326.656 Q571.26 331.309 573.227 333.994 Q575.218 336.656 578.667 336.656 Q582.07 336.656 584.061 333.971 Q586.051 331.286 586.051 326.656 Q586.051 322.05 584.061 319.364 Q582.07 316.656 578.667 316.656 M578.667 313.045 Q584.223 313.045 587.394 316.656 Q590.565 320.267 590.565 326.656 Q590.565 333.022 587.394 336.656 Q584.223 340.267 578.667 340.267 Q573.089 340.267 569.917 336.656 Q566.769 333.022 566.769 326.656 Q566.769 320.267 569.917 316.656 Q573.089 313.045 578.667 313.045 Z" fill="#000000" fill-rule="nonzero" fill-opacity="1" /><path clip-path="url(#clip700)" d="M619.176 323.948 L619.176 339.596 L614.917 339.596 L614.917 324.087 Q614.917 320.406 613.482 318.577 Q612.047 316.749 609.176 316.749 Q605.727 316.749 603.737 318.948 Q601.746 321.147 601.746 324.943 L601.746 339.596 L597.463 339.596 L597.463 313.67 L601.746 313.67 L601.746 317.698 Q603.274 315.36 605.334 314.202 Q607.417 313.045 610.125 313.045 Q614.593 313.045 616.885 315.823 Q619.176 318.577 619.176 323.948 Z" fill="#000000" fill-rule="nonzero" fill-opacity="1" /></svg>
